<svg height="512pt" viewBox="0 0 512 512.10487" width="512pt" xmlns="http://www.w3.org/2000/svg"><path d="m72.640625 421.152344c3.054687 3.046875 6.109375 5.976562 9.320313 9.082031 3.003906 3.132813 5.972656 6.203125 9.042968 9.273437 38.035156 37.746094 74.15625 59.332032 113.65625 67.933594 13.851563 3.035156 27.992188 4.582032 42.171875 4.609375 40.378907 1.074219 79.523438-13.972656 108.792969-41.8125 9.253906-9.246093 14.457031-21.792969 14.457031-34.875 0-13.085937-5.203125-25.628906-14.457031-34.875l-38.863281-38.863281c-9.246094-9.25-21.789063-14.449219-34.871094-14.449219-13.078125 0-25.625 5.199219-34.871094 14.449219l-26.972656 26.972656c-2.875 2.953125-7.460937 3.386719-10.835937 1.035156-16.648438-11.992187-32.351563-25.242187-46.96875-39.636718-14.453126-14.644532-27.757813-30.378906-39.792969-47.0625v-.058594c-2.3125-3.375-1.855469-7.925781 1.078125-10.777344l26.972656-26.976562c19.226562-19.273438 19.226562-50.476563 0-69.75l-38.859375-38.859375c-9.25-9.253907-21.792969-14.449219-34.875-14.449219-13.078125 0-25.621094 5.195312-34.871094 14.449219-36.027343 35.964843-49.925781 92.398437-37.238281 150.960937 8.617188 39.5 30.199219 75.621094 67.984375 113.679688zm-18.703125-252.585938c6.046875-6.046875 14.25-9.445312 22.804688-9.445312 8.554687 0 16.757812 3.398437 22.804687 9.445312l38.800781 38.851563c12.578125 12.605469 12.578125 33.015625 0 45.621093l-26.972656 26.972657c-8.820312 8.8125-10.007812 22.695312-2.816406 32.878906 12.558594 17.4375 26.449218 33.875 41.539062 49.171875 15.261719 15.046875 31.660156 28.894531 49.050782 41.417969 10.148437 7.351562 24.148437 6.164062 32.914062-2.789063l26.964844-26.972656c12.761718-12.1875 32.847656-12.1875 45.609375 0l38.863281 38.859375c6.050781 6.046875 9.453125 14.253906 9.453125 22.808594 0 8.558593-3.402344 16.761719-9.453125 22.8125-31.867188 31.851562-82.441406 44.023437-135.273438 32.570312-36.1875-7.886719-69.628906-28.023437-105.242187-63.359375-2.984375-2.980468-5.859375-5.972656-9.386719-9.574218-3.035156-2.917969-5.972656-5.785157-8.964844-8.730469-35.355468-35.628907-55.46875-69.078125-63.371093-105.257813-11.375-52.847656.792969-103.425781 32.65625-135.289062zm0 0"/><path d="m52.578125 299.109375c2.75.007813 5.332031-1.308594 6.941406-3.535156 1.609375-2.230469 2.046875-5.097657 1.175781-7.703125-15.941406-47.785156 3.105469-68.785156 4.035157-69.777344 3.222656-3.363281 3.148437-8.691406-.164063-11.964844-3.3125-3.277344-8.640625-3.289062-11.96875-.03125-1.152344 1.132813-27.65625 28.570313-8.117187 87.175782 1.164062 3.488281 4.425781 5.835937 8.097656 5.835937zm0 0"/><path d="m218.84375 467.625c13.023438 4.558594 26.695312 6.976562 40.488281 7.167969 16.933594.992187 33.613281-4.460938 46.6875-15.265625 3.253907-3.316406 3.253907-8.628906 0-11.945313-3.289062-3.332031-8.636719-3.417969-12.03125-.195312-.855469.851562-21.820312 20.035156-69.777343 4.042969-4.476563-1.492188-9.316407.929687-10.808594 5.40625-1.492188 4.476562.929687 9.316406 5.40625 10.808593zm0 0"/><path d="m290.242188 247.464844h102.398437c9.425781 0 17.066406-7.640625 17.066406-17.066406v-59.730469c-.078125-19.269531-13.058593-36.09375-31.675781-41.054688 19.679688-20.105469 19.449219-52.324219-.515625-72.144531-19.964844-19.824219-52.183594-19.824219-72.148437 0-19.964844 19.820312-20.195313 52.039062-.515626 72.144531-18.617187 4.960938-31.597656 21.785157-31.675781 41.054688v59.730469c0 9.425781 7.640625 17.066406 17.066407 17.066406zm51.199218-187.730469c18.851563 0 34.132813 15.28125 34.132813 34.132813 0 18.851562-15.28125 34.132812-34.132813 34.132812-18.851562 0-34.132812-15.28125-34.132812-34.132812 0-18.851563 15.28125-34.132813 34.132812-34.132813zm-51.199218 110.933594c0-14.140625 11.460937-25.601563 25.597656-25.601563h51.203125c14.136719 0 25.597656 11.460938 25.597656 25.601563v59.730469h-102.398437zm0 0"/><path d="m173.445312 319.265625c2.386719 3.164063 6.117188 5.027344 10.078126 5.035156 1.972656-.003906 3.921874-.460937 5.691406-1.332031 36.378906-17.917969 65.484375-27.792969 84.003906-28.621094l.117188.042969c21.6875 8.535156 44.796874 12.882813 68.105468 12.808594 94.105469 0 170.667969-68.90625 170.667969-153.597657 0-84.695312-76.5625-153.601562-170.667969-153.601562-94.105468 0-170.667968 68.90625-170.667968 153.601562.058593 33.214844 11.824218 65.34375 33.230468 90.742188-4.71875 21.835938-15.058594 42.0625-29.996094 58.675781-4.082031 4.570313-4.320312 11.40625-.5625 16.246094zm47.257813-71.433594c1.019531-5.003906-.296875-10.203125-3.574219-14.121093-18.816406-22.464844-29.175781-50.808594-29.289062-80.109376 0-75.28125 68.910156-136.535156 153.601562-136.535156 84.695313 0 153.601563 61.253906 153.601563 136.535156s-68.90625 136.53125-153.601563 136.53125c-21.160156.074219-42.140625-3.871093-61.832031-11.621093-2.207031-.875-4.574219-1.285157-6.945313-1.203125-18.238281.800781-43.257812 8.378906-74.496093 22.542968 10.898437-15.664062 18.5625-33.351562 22.535156-52.019531zm0 0"/></svg>