<svg id="Flat-Expanded" enable-background="new 0 0 64 64" height="512" viewBox="0 0 64 64" width="512" xmlns="http://www.w3.org/2000/svg"><circle cx="42" cy="7" fill="#f4b34a" r="5"/><path d="m54 16 7-7-3-3-6 6h-15c-2.209 0-4 1.791-4 4v7h4v13h5v-3-9l3 4-3 5 4 2 3.395-4.753c.966-1.352.995-3.161.073-4.544l-2.468-3.703v-6z" fill="#f4b34a"/><circle cx="25" cy="31" fill="#4ac3ed" r="5"/><path d="m42 40v-4h-27v-7h-4v7c0 2.209 1.791 4 4 4h5v9l-2 13h5l2-13 2 13h5l-2-13v-9z" fill="#4ac3ed"/><path d="m3 2h17v27h-17z" fill="#eae8e5"/><g fill="#304b68"><path d="m8 6h9v2h-9z"/><path d="m6 10h11v2h-11z"/><path d="m6 14h11v2h-11z"/><path d="m8 19h9v2h-9z"/><path d="m6 23h11v2h-11z"/></g><path d="m35 16h2v7h-2z" fill="#e58842"/></svg>